<svg xmlns="http://www.w3.org/2000/svg" xmlns:xlink="http://www.w3.org/1999/xlink" version="1.1" x="0px" y="0px" viewBox="0 0 100.016 237.184" style="enable-background:new 0 0 100.016 237.184;" xml:space="preserve"><g><path d="M9.051,146.415c4.411-0.258,7.775-4.044,7.517-8.454c-0.389-6.65-0.568-12.709-0.566-18.222   c-0.036-24.211,3.493-37.814,6.961-44.915V224.82c0,6.83,5.537,12.363,12.363,12.363c6.828,0,12.365-5.533,12.365-12.363v-90.272   h4.635v90.272c0,6.83,5.537,12.363,12.363,12.363c6.828,0,12.365-5.533,12.365-12.363V74.864c0.592,1.216,1.19,2.611,1.78,4.238   c2.82,7.813,5.191,20.631,5.181,40.639c0,5.515-0.177,11.571-0.566,18.222c-0.256,4.41,3.11,8.195,7.521,8.454   c0.158,0.009,0.315,0.014,0.471,0.014c4.206,0.001,7.733-3.281,7.982-7.534c0.403-6.933,0.592-13.299,0.592-19.155   c-0.039-30.183-4.861-46.888-11.435-56.931c-3.285-4.986-7.127-8.184-10.678-9.955c-3.324-1.677-6.254-2.089-8.071-2.13   c-0.168-0.011-0.335-0.025-0.506-0.025H30.692c-0.159,0-0.313,0.014-0.47,0.024c-1.815,0.036-4.761,0.443-8.11,2.131   c-5.378,2.667-11.176,8.501-15.233,18.84C2.772,82.074,0.014,97.081,0,119.739c0.002,5.856,0.189,12.225,0.596,19.158   c0.248,4.251,3.775,7.532,7.98,7.532C8.734,146.429,8.892,146.425,9.051,146.415z"></path><circle cx="50.01" cy="22.5" r="22.5"></circle></g></svg>