<svg xmlns="http://www.w3.org/2000/svg" xmlns:xlink="http://www.w3.org/1999/xlink" version="1.1" x="0px" y="0px" viewBox="0 0 100 100" enable-background="new 0 0 100 100" xml:space="preserve"><g><path fill="#000000" d="M84.611,85.404c0-0.004,0.003-0.008,0.003-0.012c0-0.015-0.007-0.027-0.009-0.043   c-1.129-10.03-5.724-50.658-7.592-64.262c-0.014-0.097-0.027-0.186-0.305-0.373c-0.086-0.152-0.242-0.245-0.416-0.249   c-1.195-0.653-4.436-2.096-13.295-5.793c-0.006-0.006-0.007-0.014-0.013-0.019l-3.692-3.477c-0.123-0.117-0.297-0.162-0.463-0.122   c-0.047,0.012-4.824,1.183-7.932,1.183c-3.105,0-7.885-1.171-7.932-1.183c-0.166-0.041-0.34,0.005-0.463,0.122l-3.692,3.477   c-0.006,0.005-0.007,0.013-0.013,0.019c-8.869,3.701-12.106,5.144-13.299,5.795c-0.219-0.02-0.419,0.104-0.5,0.309   c-0.191,0.146-0.205,0.225-0.217,0.31c-1.868,13.604-6.463,54.231-7.592,64.262c-0.002,0.015-0.009,0.027-0.009,0.043   c0,0.004,0.003,0.008,0.003,0.012c-0.152,1.355-0.241,2.144-0.248,2.204c-0.016,0.142,0.029,0.283,0.124,0.39   c0.096,0.106,0.24,0.187,0.374,0.166l9.266-0.015c0.254,0,0.468-0.191,0.496-0.444l3.873-34.867l-0.964,34.916   c0,0.188,0.081,0.451,0.464,0.648c0.713,0.368,2.715,0.609,5.059,0.609c2.768,0,5.992-0.346,8.154-1.208   c0.034,0.016,0.066,0.036,0.105,0.044c1.378,0.273,4,0.732,6.078,0.732c2.262,0,5.18-0.548,6.33-0.783   c0.001,0,0.002-0.001,0.003-0.002c2.266,0.416,7.688,0.903,11.417,0.903c1.89,0,3.344-0.125,3.73-0.447   c0.157-0.131,0.243-0.308,0.243-0.511l-0.964-34.9L74.6,87.705c0.028,0.253,0.242,0.444,0.496,0.444l9.266,0.015   c0.001,0,0.001,0,0.001,0c0.143,0,0.278-0.061,0.373-0.166c0.095-0.106,0.14-0.248,0.124-0.39   C84.853,87.548,84.764,86.76,84.611,85.404z M60.269,21.146l0.498,1.826c-0.611,1.664-6.16,16.677-9.979,23.734   c0.262-0.79,0.557-1.656,0.896-2.622c5.629-16.013,7.296-28.154,7.672-31.477l2.725,2.566c0.008,0.025,0.017,0.049,0.028,0.072   l-0.533,3.944l-1.213,1.511C60.261,20.826,60.227,20.991,60.269,21.146z M56.956,35.555h8.061v1.044h-8.491   C56.67,36.25,56.813,35.902,56.956,35.555z M41.437,20.701l-1.214-1.511l-0.533-3.944c0.012-0.023,0.021-0.047,0.028-0.072   l2.735-2.576c0.421,3.344,2.258,15.806,7.912,31.887c0.016,0.045,0.055,0.071,0.082,0.108c-0.234,0.679-0.447,1.307-0.64,1.89   c-2.507-5.009-8.192-21.769-8.778-23.504l0.5-1.833C41.571,20.991,41.537,20.826,41.437,20.701z M50.955,43.13   C46.9,31.373,44.908,21.668,44.007,16.26c1.587,0.346,4.62,0.903,6.892,0.903c2.299,0,5.375-0.57,6.946-0.915   C56.999,21.616,55.075,31.265,50.955,43.13z M58.396,12.185c-0.062,0.581-0.183,1.599-0.39,3.002   c-1.354,0.315-4.691,0.977-7.107,0.977c-2.389,0-5.682-0.647-7.063-0.966c-0.221-1.403-0.354-2.424-0.425-3.01   c1.457,0.33,4.941,1.052,7.488,1.052C53.451,13.238,56.943,12.513,58.396,12.185z M17.994,87.163   c0.033-0.306,0.082-0.737,0.143-1.271h8.256l-0.141,1.258L17.994,87.163z M26.504,84.893h-8.255   c1.218-10.812,5.614-49.633,7.477-63.312c3.313,1.254,5.682,8.355,5.682,17.272c0,0.793-0.023,1.6-0.069,2.396   c-0.002,0.02,0.006,0.037,0.008,0.057L26.504,84.893z M31.572,70.896l7.994-0.42v1.43l-8.033,0.421L31.572,70.896z M31.76,64.091   l7.807-0.41v3.324l-7.898,0.414L31.76,64.091z M31.112,87.559l0.393-14.229l8.588-0.45c0.266-0.015,0.474-0.233,0.474-0.5v-2.431   c0-0.138-0.057-0.269-0.155-0.363c-0.1-0.094-0.233-0.145-0.37-0.137L31.6,69.893l0.041-1.471l8.452-0.442   c0.266-0.015,0.474-0.233,0.474-0.5v-4.326c0-0.137-0.057-0.268-0.155-0.362c-0.1-0.095-0.233-0.143-0.37-0.137l-8.254,0.433   l0.607-22.002c0.002-0.07-0.018-0.137-0.047-0.2c0.033-0.678,0.06-1.359,0.06-2.032c0-8.901-2.288-15.903-5.687-17.895   c2.369-1.099,7.981-3.487,12.031-5.182l0.499,3.686c0.012,0.09,0.049,0.175,0.105,0.246l1.141,1.421l-0.473,1.734   c-0.026,0.096-0.023,0.197,0.009,0.291c0.279,0.833,6.884,20.436,9.294,24.552c0.017,0.027,0.04,0.045,0.061,0.068   c-1.066,3.354-1.331,4.754-1.345,4.83c-0.006,0.029-0.009,0.06-0.009,0.09v21.607c0.003,0.225,0.065,2.763,0.894,5.589   c-0.27,0.841-1.543,4.392-4.391,6.416C41.534,88.442,32.481,88.152,31.112,87.559z M45.182,87.071   c2.291-1.658,3.607-4.13,4.256-5.679c0.905,2.32,2.396,4.597,4.85,5.758c-1.305,0.216-2.945,0.43-4.32,0.43   C48.422,87.58,46.503,87.302,45.182,87.071z M56.473,86.811c-7.168-1.318-7.437-12.413-7.438-12.517V52.743   c0.037-0.181,0.205-0.958,0.639-2.462c0.011-0.011,0.025-0.016,0.035-0.027c1.668-1.973,4.133-7.267,6.401-12.659   c0.006,0,0.012,0.004,0.018,0.004h9.39c0.276,0,0.5-0.224,0.5-0.5v-2.044c0-0.276-0.224-0.5-0.5-0.5h-8.152   c2.345-5.775,4.236-10.95,4.396-11.389c0.035-0.097,0.04-0.203,0.013-0.303L61.3,21.129l1.141-1.421   c0.057-0.071,0.094-0.156,0.105-0.246l0.499-3.686c4.031,1.687,9.611,4.061,11.998,5.167c-3.412,1.971-5.712,8.986-5.712,17.91   c0,0.818,0.024,1.644,0.071,2.454c0,0.01,0.006,0.019,0.007,0.029l0.601,21.752l-8.254-0.433c-0.137-0.008-0.271,0.042-0.371,0.137   s-0.155,0.226-0.155,0.362v4.326c0,0.267,0.208,0.485,0.474,0.5l8.454,0.442l0.527,19.104   C69.219,87.974,60.501,87.552,56.473,86.811z M70.129,67.42l-7.899-0.414v-3.324l7.808,0.409L70.129,67.42z M70.42,41.022   c-0.002-0.022-0.021-0.039-0.027-0.061c-0.036-0.699-0.062-1.406-0.062-2.109c0-8.967,2.396-16.097,5.737-17.292   c1.861,13.661,6.262,52.516,7.479,63.332h-8.255L70.42,41.022z M75.545,87.15l-0.141-1.258h8.256   c0.061,0.533,0.109,0.965,0.143,1.271L75.545,87.15z"></path><path fill="#000000" d="M51.547,51.447c-0.871,0-1.58,0.709-1.58,1.58s0.709,1.58,1.58,1.58s1.58-0.709,1.58-1.58   S52.418,51.447,51.547,51.447z M51.547,53.607c-0.32,0-0.58-0.261-0.58-0.58c0-0.32,0.26-0.58,0.58-0.58   c0.319,0,0.58,0.26,0.58,0.58C52.127,53.347,51.866,53.607,51.547,53.607z"></path><path fill="#000000" d="M51.547,62.386c-0.871,0-1.58,0.709-1.58,1.58s0.709,1.58,1.58,1.58s1.58-0.709,1.58-1.58   S52.418,62.386,51.547,62.386z M51.547,64.546c-0.32,0-0.58-0.26-0.58-0.58c0-0.319,0.26-0.58,0.58-0.58   c0.319,0,0.58,0.261,0.58,0.58C52.127,64.286,51.866,64.546,51.547,64.546z"></path></g></svg>