<svg xmlns="http://www.w3.org/2000/svg" xmlns:xlink="http://www.w3.org/1999/xlink" version="1.1" x="0px" y="0px" viewBox="-25 173 100 125" style="enable-background:new -25 173 100 100;" xml:space="preserve"><style type="text/css">
	.st0{fill:#231F20;}
</style><g><circle class="st0" cx="24.7" cy="231.4" r="1.4"/><circle class="st0" cx="24.7" cy="209.7" r="1.4"/><circle class="st0" cx="24.7" cy="253.1" r="1.4"/><path class="st0" d="M55.2,192.8c0-0.1,0-0.2,0-0.2c0-0.1-0.1-0.1-0.1-0.2c0-0.1-0.1-0.1-0.1-0.2c0,0-0.1-0.1-0.2-0.1l-0.1-0.1   l-10.4-4.5c-0.1-0.1-0.3-0.1-0.4-0.1l-1.7-3c0,0,0,0,0-0.1l0,0l-1.7-2.4c-0.2-0.3-0.4-0.3-0.7-0.3H13c-0.3,0-0.5,0.2-0.7,0.3   l-1.7,2.4c0,0,0,0,0,0.1l0,0l-1.7,3c-0.2,0-0.3,0-0.4,0.1l-10.4,4.5l-0.1,0.1c-0.1,0-0.1,0.1-0.2,0.1c0,0-0.1,0.1-0.1,0.2   s-0.1,0.1-0.1,0.2s0,0.1,0,0.2v0.1l1.7,65.6c0,0.5,0.4,0.8,0.8,0.8h27.4c0,0,0,0,0.1,0c0.1,0,0.1,0,0.1,0h24.8   c0.5,0,0.8-0.4,0.8-0.8L55.2,192.8C55.3,192.9,55.2,192.9,55.2,192.8z M31.2,199.7l10.2-13.1l1.1,2l-1.5,20l-10-8.6L31.2,199.7z    M13.4,183.5h26l1,1.5l-3.6,4.3H16.8l-4.3-4.3L13.4,183.5z M11.5,186.4l12.7,13.5l0.1,0.1l-12.5,8.8l-1.5-20.2L11.5,186.4z    M-0.7,193.5l9.3-3.9l1.5,20.9c0,0.3,0.2,0.6,0.5,0.7c0.1,0.1,0.3,0.1,0.3,0.1c0.2,0,0.3-0.1,0.5-0.2l12.7-9l2.5,3.6v52H1   L-0.7,193.5z M28.5,257.7v-52.1l1.8-3.9l10.9,9.3c0.2,0.2,0.3,0.2,0.6,0.2c0.1,0,0.3,0,0.3-0.1c0.3-0.1,0.5-0.4,0.5-0.8l1.5-20.8   l9.3,3.9l-1.7,64.2H28.5z"/><rect x="20.4" y="186.4" class="st0" width="12.1" height="1.8"/><path class="st0" d="M49.4,225.7v-2.9c0-0.5-0.4-0.8-0.8-0.8H33.4c-0.5,0-0.8,0.4-0.8,0.8v18.7c0,0.5,0.4,0.8,0.8,0.8h15.2   c0.5,0,0.8-0.4,0.8-0.8V225.7L49.4,225.7z M47.7,223.8v1.4l-6.3,2.8l-7.2-3v-1.3H47.7z M34.2,240.7v-13.9l6.9,2.9   c0.1,0.1,0.3,0.1,0.3,0.1c0.1,0,0.3,0,0.3-0.1l5.8-2.6v13.6H34.2z"/></g><text x="-25" y="288" fill="#000000" font-size="5px" font-weight="bold" font-family="'Helvetica Neue', Helvetica, Arial-Unicode, Arial, Sans-serif">Created by tfutrell</text><text x="-25" y="293" fill="#000000" font-size="5px" font-weight="bold" font-family="'Helvetica Neue', Helvetica, Arial-Unicode, Arial, Sans-serif">from the Noun Project</text></svg>