<svg xmlns="http://www.w3.org/2000/svg" xmlns:xlink="http://www.w3.org/1999/xlink" version="1.1" x="0px" y="0px" viewBox="0 0 100 100" enable-background="new 0 0 100 100" xml:space="preserve"><g><line fill="none" stroke="#000000" stroke-miterlimit="10" x1="28.566" y1="31.792" x2="71.35" y2="31.792"></line><path fill="none" stroke="#000000" stroke-miterlimit="10" d="M34.25,31.792c0,4.37-4.655,7.906-7.318,7.906"></path><polygon fill="none" stroke="#000000" stroke-miterlimit="10" points="70.416,26.878 29.583,26.878 21,68.378 46.209,73.122    50,51.372 53.791,73.122 79,68.378  "></polygon><path fill="none" stroke="#000000" stroke-miterlimit="10" d="M65.666,31.792c0,4.37,4.655,7.906,7.318,7.906"></path><line fill="none" stroke="#000000" stroke-miterlimit="10" x1="48.271" y1="29.335" x2="45.896" y2="29.335"></line><line fill="none" stroke="#000000" stroke-miterlimit="10" x1="47.084" y1="29.335" x2="47.084" y2="44.294"></line><line fill="none" stroke="#000000" stroke-miterlimit="10" x1="51.644" y1="29.335" x2="54.019" y2="29.335"></line><line fill="none" stroke="#000000" stroke-miterlimit="10" x1="52.831" y1="29.335" x2="52.831" y2="44.294"></line><rect x="51.909" y="44.294" fill="none" stroke="#000000" stroke-miterlimit="10" width="1.844" height="1.844"></rect><rect x="46.162" y="44.294" fill="none" stroke="#000000" stroke-miterlimit="10" width="1.844" height="1.844"></rect></g></svg>