<svg xmlns="http://www.w3.org/2000/svg" xmlns:xlink="http://www.w3.org/1999/xlink" version="1.1" x="0px" y="0px" viewBox="0 0 116.421 227.691" style="enable-background:new 0 0 116.421 227.691;" xml:space="preserve"><g><path d="M5.833,132.792c3.57,0.37,6.765-2.228,7.135-5.798c1.766-17.146,5.019-29.752,8.901-38.902   c3.193-7.463,6.706-12.608,10.261-16.256l-17.251,89.326h21.666v56.529c0,5.523,4.477,10,10,10c5.521,0,10-4.477,10-10v-56.529   h3.334v56.529c0,5.523,4.475,10,10,10c5.52,0,10-4.477,10-10v-56.529h21.666L84.293,71.84c3.548,3.646,7.092,8.801,10.258,16.252   c3.882,9.152,7.132,21.756,8.902,38.902c0.345,3.343,3.167,5.833,6.458,5.833c0.224,0,0.45-0.012,0.678-0.035   c3.569-0.368,6.165-3.563,5.797-7.133h-0.002c-1.872-18.104-5.336-31.948-9.866-42.642c-6.735-16.021-16.215-25-25.524-29.396   c-9.254-4.427-17.956-4.371-22.694-4.381c-0.078,0-0.139,0.002-0.182,0.003c-6.297-0.026-19.735-0.011-31.953,10.391   c-6.095,5.154-11.742,12.703-16.266,23.384c-4.527,10.693-7.991,24.537-9.863,42.642C-0.335,129.229,2.263,132.424,5.833,132.792z"></path><circle cx="58.211" cy="21.5" r="21.5"></circle></g></svg>