<svg xmlns="http://www.w3.org/2000/svg" xmlns:xlink="http://www.w3.org/1999/xlink" version="1.1" x="0px" y="0px" viewBox="0 0 100 100" enable-background="new 0 0 100 100" xml:space="preserve"><g><g><path d="M29.296,15.38c7.708,1.405,13.849,5.337,21.926,4.656c6.414-0.541,13.381-1.771,19.121-4.794    c1.17-0.617,0.109-1.535-0.829-1.041c-5.858,3.086-12.907,4.082-19.425,4.631c-7.123,0.601-13.279-3.526-20.1-4.769    C29.095,13.901,28.006,15.145,29.296,15.38L29.296,15.38z"></path></g></g><g><g><path d="M28.736,14.677c-12.56,16.068-7.834,41.319-25.561,53.834c-0.308,0.217-0.53,0.554-0.152,0.82    c5.998,4.222,11.599,9.602,19.338,9.718c0.781,0.012,2.038-1.159,0.729-1.179c-4.403-0.066-7.94-1.966-11.486-4.361    c-1.63-1.101-3.181-2.328-4.754-3.506c-1.686-1.263-1.632-1.279-0.111-2.58c4.656-3.981,7.699-8.927,9.93-14.594    c5-12.7,5.176-26.932,13.877-38.063C31.114,14.043,29.152,14.145,28.736,14.677L28.736,14.677z"></path></g></g><g><g><path d="M69.019,15.054c7.812,9.995,9.074,22.812,12.66,34.587c1.588,5.215,3.912,10.094,7.362,14.332    c1.556,1.912,6.554,4.391,3.698,6.486c-4.607,3.38-9.194,7.508-15.272,7.599c-0.412,0.006-2.2,0.819-1.248,0.805    c8.161-0.123,13.954-5.514,20.307-9.986c0.091-0.064,0.345-0.244,0.167-0.369c-17.937-12.665-13.179-37.9-25.855-54.118    C70.545,14.016,68.712,14.662,69.019,15.054L69.019,15.054z"></path></g></g><path d="M68.852,51.402c-0.149-0.402,0.957-0.934,1.077-0.451c0.775,3.134,2.768,5.762,3.695,8.755  c0.902,2.914,1.573,5.503,1.777,8.54c0.345,5.116,0.348,10.273,3.263,14.697c0.187,0.284-0.407,0.141-0.524,0.157  c-4.086,0.542-7.824,1.129-11.713,2.72c-1.844,0.754-3.187,1.108-5.441,1.101c-1.159-0.003,1.028-0.778,1.521-0.821  c3.719-0.318,5.453-2.003,9.015-2.912c2.235-0.57,4.33-0.732,6.601-1.034c-0.341,0.199-0.361,0.618-0.702,0.817  c-3.219-4.883-2.833-10.018-3.371-15.611C73.467,61.311,70.902,56.961,68.852,51.402L68.852,51.402z"></path><g><g><path d="M62.462,86.04c-2.703,0.265-4.782-1.049-7.41-1.224c-2.189-0.146-4.901,1.297-6.824,1.922    c-7.013,2.278-13.923-2.34-20.419-3.937c-0.824-0.203-6.274,0.018-5.354-1.764c1.614-3.126,2.029-6.205,2.213-9.683    c0.185-3.5,0.42-6.918,1.157-10.349c0.78-3.631,3.053-6.748,4.326-10.199c0.193-0.523-1.709-0.284-1.92,0.287    c-1.982,5.372-4.521,9.604-5.152,15.45c-0.615,5.699-0.075,10.982-3.344,15.997c-0.169,0.26,0.006,0.409,0.281,0.443    c2.676,0.341,5.306,0.438,7.945,1.087c2.71,0.666,5.158,2.287,7.892,3.001c1.923,0.502,4.325,1.29,6.313,1.282    c3.317-0.013,6.35-0.776,9.447-1.914c3.153-1.158,7.115,0.842,10.544,0.506C63.032,86.862,63.813,85.907,62.462,86.04    L62.462,86.04z"></path></g></g></svg>