<svg xmlns="http://www.w3.org/2000/svg" xmlns:xlink="http://www.w3.org/1999/xlink" xml:space="preserve" version="1.1" style="shape-rendering:geometricPrecision;text-rendering:geometricPrecision;image-rendering:optimizeQuality;" viewBox="0 0 50000 50000" x="0px" y="0px" fill-rule="evenodd" clip-rule="evenodd"><defs><style type="text/css">
   
    .fil0 {fill:black;fill-rule:nonzero}
   
  </style></defs><g><path class="fil0" d="M43646 3422c149,921 132,1670 115,2376 -12,511 -24,999 34,1512 85,757 766,2316 1474,3938 170,388 341,780 496,1141 537,1256 923,2242 1128,3232 206,999 226,1988 27,3236 -81,512 -267,1347 -492,2264 -266,1090 -584,2289 -842,3196 -253,891 -439,1737 -589,2578 -153,857 -266,1688 -375,2545 -249,1970 -438,4518 -624,7030 -192,2585 -381,5131 -635,7009l-19 146 -130 69c-48,26 -60,32 -72,39 -272,149 -589,323 -1306,318l-10 0c-772,-35 -1196,-432 -1413,-635l-129 -120 8 -134c11,-186 53,-611 111,-1209 356,-3628 1348,-13739 -110,-16030 -2527,366 -4251,4578 -6029,8922 -1809,4421 -3673,8974 -6633,10020 -256,90 -387,244 -539,423 -373,437 -845,990 -2873,1367 -2229,414 -6910,723 -11159,655 -3301,-53 -6354,-336 -7832,-977 -402,-174 -1092,-588 -1596,-1069 -384,-367 -672,-783 -690,-1197 -77,-1796 3725,-2934 5380,-3429l46 -13 -215 -1228c-187,-1073 284,-1382 1200,-1980 220,-144 469,-307 739,-503 306,-223 663,-522 1049,-847 1334,-1120 2997,-2517 4406,-2285 850,140 1850,568 2866,1126 1337,734 2708,1696 3795,2518 925,700 1614,-133 2349,-1024l110 -133c1544,-1861 2425,-3819 3338,-5849 896,-1991 1823,-4052 3435,-6180l3 -3c955,-1220 982,-1458 1051,-2076 29,-257 65,-573 161,-1024 582,-2733 2200,-5998 3643,-8909 1310,-2644 2473,-4990 2548,-6288 -1614,-318 -3775,-516 -5938,-607 -2590,-109 -5179,-64 -6830,109 -67,7 -167,18 -260,28 -616,67 -933,102 -1169,-84 -261,-207 -260,-536 -259,-1214l0 -118c12,-175 20,-315 26,-445 75,-1385 98,-1817 1734,-2107 1420,-251 3316,-293 5543,-198 2187,94 4689,319 7373,608 160,-99 411,-182 712,-231 391,-63 898,-89 1411,-38 524,51 1058,183 1496,436 491,284 859,714 961,1343zm-456 2363c16,-679 33,-1399 -109,-2271 -70,-435 -332,-737 -683,-940 -360,-208 -814,-318 -1265,-362 -461,-46 -914,-23 -1263,34 -281,46 -462,86 -474,106l-93 161 -185 -20c-2720,-294 -5252,-524 -7448,-618 -2185,-93 -4041,-53 -5422,192 -1188,210 -1205,534 -1260,1571 -8,147 -17,305 -26,452l-1 82c-1,493 -1,731 42,766 51,40 290,14 754,-37 69,-8 144,-16 263,-28 1675,-176 4294,-221 6911,-111 2298,97 4597,313 6261,665l216 46 10 220c69,1389 -1184,3917 -2607,6788 -1428,2880 -3029,6110 -3596,8775 -91,425 -124,724 -152,968 -82,732 -114,1016 -1167,2361l1 0c-1573,2078 -2487,4108 -3370,6071 -930,2066 -1826,4058 -3419,5978l-110 133c-915,1109 -1772,2146 -3135,1116 -1070,-809 -2418,-1755 -3725,-2473 -966,-531 -1905,-936 -2683,-1064 -1149,-189 -2701,1115 -3947,2160 -394,332 -759,638 -1080,872 -285,206 -538,372 -762,518 -707,462 -1071,701 -949,1402l302 1727 -243 74c-221,67 -258,78 -291,88 -1525,456 -5030,1505 -4972,2855 11,244 226,533 513,807 455,435 1071,806 1428,960 1402,608 4379,877 7615,929 4214,68 8847,-237 11047,-645 1827,-340 2226,-807 2541,-1177 206,-241 384,-450 784,-591 2720,-961 4533,-5392 6295,-9695 1883,-4601 3708,-9061 6671,-9296l153 -13 95 121c1727,2196 686,12805 317,16565 -46,472 -82,834 -100,1057 180,161 487,393 979,416 514,2 764,-112 965,-221 240,-1835 424,-4314 611,-6829 185,-2508 374,-5051 629,-7061 112,-886 227,-1735 377,-2573 152,-855 342,-1719 602,-2634 260,-913 576,-2106 838,-3175 221,-904 404,-1724 483,-2219 187,-1175 169,-2102 -23,-3032 -194,-939 -570,-1897 -1095,-3123 -168,-393 -331,-767 -493,-1137 -726,-1663 -1424,-3261 -1519,-4104 -61,-542 -49,-1052 -36,-1587zm-5230 20849c4896,-6855 4990,-12510 5071,-17354 22,-1362 44,-2660 168,-3906l569 56c-123,1229 -144,2513 -166,3859 -82,4927 -178,10678 -5176,17676l-466 -331zm-5782 -3428c1573,-1875 3149,-3271 4825,-4211 1686,-946 3469,-1431 5446,-1480l13 571c-1879,47 -3575,508 -5179,1408 -1613,906 -3138,2257 -4666,4079l-439 -367zm13776 -234c-190,695 -938,1302 -1933,1791 -1152,566 -2653,990 -3974,1206l-91 -564c1273,-209 2715,-615 3814,-1155 857,-421 1492,-911 1633,-1428l551 150zm-4401 20788c40,-1999 298,-4593 557,-7209 444,-4476 895,-9015 276,-10576 -140,-353 -343,-506 -628,-393l-210 -531c656,-260 1095,22 1369,714 670,1690 213,6298 -238,10842 -258,2607 -515,5194 -555,7164l-571 -11zm-19320 -6313c1243,1186 2222,2445 2959,3762 765,1369 1268,2800 1532,4276l-562 101c-253,-1414 -735,-2785 -1470,-4099 -708,-1266 -1652,-2480 -2853,-3625l394 -415zm-13817 3447c-312,-1254 -284,-2038 -16,-2458 280,-438 750,-510 1343,-310 493,167 1086,535 1720,1035 2450,1930 5654,5924 6055,7682l-558 126c-378,-1659 -3475,-5486 -5851,-7358 -587,-463 -1122,-799 -1548,-943 -327,-110 -568,-100 -680,75 -185,290 -180,926 90,2014l-555 137zm30415 -35543c1265,208 2121,284 2802,269 669,-15 1179,-119 1756,-274l148 553c-614,165 -1161,276 -1892,292 -719,16 -1606,-62 -2905,-276l91 -564zm-13799 -337c78,547 1612,908 3678,1141 3276,369 7804,330 10295,220l25 571c-2511,111 -7077,150 -10383,-222 -2320,-261 -4057,-757 -4182,-1629l567 -81zm-16406 35534l254 -62c1028,-252 1886,-463 3194,-675l89 564c-1283,209 -2132,417 -3149,666l-253 62 -135 -555zm3523 -169c-1233,331 -1914,732 -2186,1158 -167,263 -162,546 -27,832 156,332 476,671 905,996 1409,1066 3909,1918 5809,1910l2 571c-2014,8 -4663,-894 -6156,-2024 -501,-379 -880,-789 -1078,-1209 -219,-465 -222,-935 64,-1383 345,-543 1136,-1033 2520,-1404l147 553zm-7813 4794c458,1305 1888,2070 3741,2502 1918,447 4275,533 6501,484 1367,-29 2754,-86 3965,-148 1586,-82 2857,-175 3378,-231 1182,-129 2144,-287 2779,-587 554,-262 844,-644 786,-1241l569 -54c86,884 -324,1440 -1111,1812 -705,333 -1724,504 -2962,639 -527,57 -1810,150 -3410,233 -1204,62 -2594,118 -3983,148 -2268,50 -4673,-39 -6642,-498 -2034,-474 -3616,-1347 -4151,-2871l540 -188zm21625 -1422c3255,-1456 4704,-5175 6238,-9114 1681,-4314 3462,-8886 7826,-11219l269 504c-4177,2233 -5919,6703 -7562,10921 -1578,4052 -3069,7878 -6538,9430l-233 -522z"></path></g></svg>