<svg xmlns="http://www.w3.org/2000/svg" xmlns:xlink="http://www.w3.org/1999/xlink" xml:space="preserve" version="1.1" style="shape-rendering:geometricPrecision;text-rendering:geometricPrecision;image-rendering:optimizeQuality;" viewBox="0 0 17639 17639" x="0px" y="0px" fill-rule="evenodd" clip-rule="evenodd"><defs><style type="text/css">
   
    .fil0 {fill:black;fill-rule:nonzero}
   
  </style></defs><g><g><path class="fil0" d="M13092 5749c436,-20 767,-74 1040,-149 271,-74 486,-170 688,-274 193,-100 181,-142 110,-389l-13 -44c-36,-127 -75,-264 -115,-399 -44,-151 -94,-319 -152,-507 -49,-158 -88,-297 -125,-426 -236,-836 -342,-1211 -1581,-1737 -206,-88 -426,-195 -635,-297 -288,-140 -554,-269 -712,-315 -42,-12 -54,-65 -60,-46 -104,365 -192,798 -285,1256 -355,1754 -784,3866 -2443,3888l-3 0c-1660,-22 -2088,-2134 -2443,-3888 -93,-458 -181,-891 -285,-1256 -6,-20 -18,34 -60,46 -158,45 -424,175 -712,315 -209,102 -429,209 -635,296 -1239,527 -1345,901 -1582,1738 -36,128 -75,268 -124,425l-45 148c-98,317 -173,563 -224,724 -45,145 -52,233 -27,293 25,59 88,105 181,160 175,105 459,229 801,319 263,69 561,117 868,118l0 176c-324,-1 -636,-51 -912,-124 -360,-94 -660,-227 -847,-338 -123,-74 -209,-139 -253,-242 -43,-101 -38,-226 21,-415 62,-199 133,-427 223,-722l46 -149c46,-149 86,-290 123,-421 253,-892 366,-1292 1682,-1852 197,-83 417,-191 627,-293 295,-143 567,-276 741,-326 148,-42 248,-27 277,76 105,364 194,804 288,1269 343,1691 755,3726 2272,3747 1518,-20 1930,-2056 2273,-3746 94,-465 183,-905 288,-1270 29,-102 129,-117 277,-75 173,50 446,182 741,326 210,102 430,209 627,293 1316,559 1429,959 1682,1852 37,130 77,272 123,421 59,192 109,360 153,509 48,164 85,291 116,400l12 45c105,365 123,428 -198,593 -211,108 -436,209 -723,288 -285,78 -629,135 -1078,155l-8 -176z"></path><path class="fil0" d="M12495 3349c-15,-46 11,-96 57,-110 46,-15 95,10 110,56 287,887 515,1876 531,2784 12,658 -88,1274 -357,1781 -272,513 -715,912 -1386,1129 -334,108 -724,171 -1179,179 -49,0 -88,-38 -89,-87 -1,-48 38,-88 86,-89 436,-8 810,-67 1128,-170 623,-201 1033,-571 1284,-1044 254,-479 348,-1067 337,-1696 -15,-888 -240,-1860 -522,-2733z"></path><path class="fil0" d="M13367 15810c-472,-1269 -783,-2550 -899,-3892 -116,-1343 -36,-2748 276,-4266l173 36c-309,1499 -388,2887 -274,4214 115,1328 423,2594 889,3846l-165 62z"></path><path class="fil0" d="M11439 1461c-773,582 -1702,873 -2631,873 -929,0 -1859,-291 -2632,-873l106 -141c742,559 1634,838 2526,838 892,0 1783,-279 2525,-837l106 140z"></path><path class="fil0" d="M4953 3295c14,-46 64,-72 110,-57 46,15 72,64 57,111 -282,873 -507,1844 -523,2732 -11,630 84,1217 338,1696 251,474 661,843 1284,1044 318,103 692,163 1128,170 48,1 87,41 86,90 -1,48 -41,87 -89,86 -455,-8 -845,-70 -1179,-178 -671,-217 -1114,-617 -1386,-1130 -269,-507 -369,-1123 -357,-1781 16,-908 244,-1896 531,-2783z"></path><path class="fil0" d="M4083 15748c466,-1253 774,-2519 889,-3846 114,-1327 35,-2716 -274,-4215l173 -35c312,1517 392,2922 276,4265 -116,1343 -428,2623 -899,3892l-165 -61z"></path><path class="fil0" d="M4199 15617c974,539 2870,826 4742,826 1800,0 3572,-265 4471,-823l93 149c-928,577 -2735,849 -4564,849 -1898,0 -3827,-294 -4827,-847l85 -154z"></path><path class="fil0" d="M13119 5449c320,-21 655,-86 973,-191 310,-101 604,-239 853,-406l59 88c-258,173 -561,315 -880,419 -326,107 -669,174 -999,195l-6 -105z"></path><path class="fil0" d="M4512 5511c-335,-21 -685,-89 -1018,-196 -325,-104 -633,-246 -895,-419l58 -88c254,168 554,306 870,407 324,104 665,170 991,190l-6 106z"></path><path class="fil0" d="M4407 15288c1041,502 2765,737 4463,731 1756,-6 3480,-270 4385,-761l51 93c-920,499 -2664,767 -4436,773 -1712,6 -3453,-232 -4509,-741l46 -95z"></path><path class="fil0" d="M12728 1633c19,-44 71,-65 116,-46 44,20 65,71 45,116l-217 501c-19,44 -71,65 -115,46 -45,-19 -65,-71 -46,-116l217 -501z"></path><path class="fil0" d="M4862 1689c-19,-44 1,-96 46,-115 44,-19 96,1 115,46l217 501c19,45 -1,96 -46,116 -44,19 -96,-2 -115,-46l-217 -502z"></path><path class="fil0" d="M10781 2367c-580,311 -1277,466 -1973,466 -697,0 -1394,-156 -1974,-467l49 -93c565,303 1245,455 1925,455 679,0 1359,-152 1924,-454l49 93z"></path></g></g></svg>