<svg xmlns="http://www.w3.org/2000/svg" viewBox="0 0 512 512" version="1.1" x="0px" y="0px"><path fill="#000000" opacity="1.00" d=" M 206.09 40.96 C 205.78 38.25 208.30 35.67 211.04 36.07 C 213.48 36.17 215.32 38.57 215.21 40.93 C 215.48 49.30 215.22 57.67 215.33 66.04 C 215.11 67.32 216.24 68.12 216.99 68.94 C 230.39 82.01 243.90 94.97 257.18 108.17 C 272.30 93.89 286.76 78.93 301.83 64.61 C 302.75 56.26 301.62 47.67 302.42 39.26 C 303.47 34.69 311.06 35.24 311.29 39.99 C 311.61 55.30 311.11 70.63 311.51 85.92 C 316.43 95.67 322.59 104.74 328.32 114.02 C 332.44 120.89 337.20 127.35 341.69 133.98 C 337.97 142.06 335.60 150.68 332.04 158.84 C 329.91 165.35 327.49 171.76 324.98 178.14 C 322.52 184.39 320.89 190.95 318.28 197.15 C 314.55 205.03 312.40 213.55 308.42 221.33 C 333.91 234.58 355.43 254.23 374.31 275.65 C 408.78 315.03 435.63 360.40 459.19 406.94 C 462.22 411.77 464.86 416.91 466.57 422.36 C 462.06 424.78 459.41 429.34 455.78 432.78 C 446.01 443.06 433.32 451.24 419.06 453.17 C 407.80 453.98 396.40 451.87 385.90 447.84 C 377.04 445.05 367.76 443.11 358.43 443.61 C 353.48 444.50 348.37 444.43 343.51 445.82 C 336.34 447.84 329.46 450.96 323.47 455.42 C 311.42 462.76 302.27 473.95 290.10 481.12 C 282.00 486.31 272.52 488.87 263.08 490.27 C 253.63 491.12 244.09 489.15 235.26 485.85 C 220.96 479.79 209.69 468.84 197.38 459.69 C 187.25 452.39 175.57 446.36 162.92 445.51 C 150.24 445.43 138.38 450.84 127.19 456.25 C 117.91 459.41 107.88 460.22 98.14 459.37 C 85.41 457.05 73.53 450.72 63.96 442.08 C 59.39 438.19 55.54 433.47 50.61 430.02 C 50.34 429.06 50.08 428.11 49.82 427.16 C 52.61 422.19 55.40 417.22 58.25 412.29 C 76.03 375.99 96.22 340.78 119.90 307.99 C 138.58 282.44 159.44 258.09 184.56 238.65 C 193.04 232.06 202.16 226.32 211.65 221.29 C 200.08 192.56 190.81 162.95 179.38 134.17 C 179.68 132.96 180.50 131.98 181.12 130.92 C 189.53 118.22 197.14 105.03 204.75 91.85 C 206.08 89.82 205.93 87.32 206.05 85.01 C 206.13 70.33 206.03 55.64 206.09 40.96 M 261.97 112.82 C 263.35 114.16 264.73 115.50 266.11 116.85 C 278.13 105.20 290.27 93.69 302.24 81.99 C 302.24 79.10 302.19 76.21 302.16 73.32 C 288.69 86.41 275.35 99.63 261.97 112.82 M 215.18 83.11 C 226.09 94.55 237.03 105.95 247.99 117.34 C 249.54 115.82 251.11 114.30 252.69 112.80 C 240.32 100.55 227.69 88.56 215.32 76.30 C 215.24 78.57 215.20 80.84 215.18 83.11 M 252.48 122.04 C 253.76 123.39 255.03 124.76 256.31 126.12 C 258.13 124.58 259.89 122.97 261.55 121.25 C 260.12 119.96 258.70 118.66 257.29 117.35 C 255.70 118.93 254.09 120.49 252.48 122.04 Z"></path></svg>